<svg xmlns="http://www.w3.org/2000/svg" xmlns:xlink="http://www.w3.org/1999/xlink" viewBox="0 0 66.92 59.04"><defs><style>.cls-1{fill:#fff;}.cls-2{fill:url(#New_Gradient_Swatch_copy_2);}.cls-3{fill:url(#New_Gradient_Swatch_copy);}.cls-4{fill:url(#New_Gradient_Swatch_copy-2);}.cls-5{fill:url(#New_Gradient_Swatch_copy-3);}</style><linearGradient id="New_Gradient_Swatch_copy_2" x1="38.75" y1="39" x2="59.07" y2="18.67" gradientUnits="userSpaceOnUse"><stop offset="0" stop-color="#d0e8f8"/><stop offset="1" stop-color="#e1eef9"/></linearGradient><linearGradient id="New_Gradient_Swatch_copy" x1="3.82" y1="51.41" x2="14.31" y2="51.41" gradientUnits="userSpaceOnUse"><stop offset="0" stop-color="#00aeef"/><stop offset="1" stop-color="#00bdf2"/></linearGradient><linearGradient id="New_Gradient_Swatch_copy-2" x1="14.95" y1="51.41" x2="25.45" y2="51.41" xlink:href="#New_Gradient_Swatch_copy"/><linearGradient id="New_Gradient_Swatch_copy-3" x1="26.08" y1="51.41" x2="36.58" y2="51.41" xlink:href="#New_Gradient_Swatch_copy"/></defs><title>資產 13</title><g id="圖層_2" data-name="圖層 2"><g id="Icons"><g id="Rain"><path class="cls-1" d="M46,36.44a10.67,10.67,0,1,0,0-21.33h-.11a17,17,0,0,0-32.44-5.07H13.2a13.2,13.2,0,0,0,0,26.4"/><path class="cls-2" d="M60.22,36.44a6.7,6.7,0,1,0,0-13.39h-.07a10.69,10.69,0,0,0-20.37-3.18h-.16a8.29,8.29,0,0,0,0,16.58"/><path class="cls-3" d="M5.81,59a1.87,1.87,0,0,1-1-.27A2,2,0,0,1,4.08,56l6.5-11.25a2,2,0,1,1,3.47,2L7.55,58A2,2,0,0,1,5.81,59Z"/><path class="cls-4" d="M17,59a1.91,1.91,0,0,1-1-.27A2,2,0,0,1,15.22,56l6.5-11.25a2,2,0,1,1,3.46,2L18.68,58A2,2,0,0,1,17,59Z"/><path class="cls-5" d="M28.08,59a1.93,1.93,0,0,1-1-.27A2,2,0,0,1,26.35,56l6.5-11.25a2,2,0,1,1,3.46,2L29.82,58A2,2,0,0,1,28.08,59Z"/></g></g></g></svg>