<svg xmlns="http://www.w3.org/2000/svg" xmlns:xlink="http://www.w3.org/1999/xlink" viewBox="0 0 66.92 65.11"><defs><style>.cls-1{fill:#fff;}.cls-2{fill:url(#New_Gradient_Swatch_copy_2);}.cls-3{fill:url(#New_Gradient_Swatch_copy);}.cls-4{fill:url(#New_Gradient_Swatch_copy-2);}.cls-5{fill:url(#New_Gradient_Swatch_copy_2-2);}.cls-6{fill:url(#New_Gradient_Swatch_copy_2-3);}.cls-7{fill:url(#New_Gradient_Swatch_copy_2-4);}.cls-8{fill:url(#New_Gradient_Swatch_copy_2-5);}.cls-9{fill:url(#New_Gradient_Swatch_copy_2-6);}</style><linearGradient id="New_Gradient_Swatch_copy_2" x1="38.75" y1="39" x2="59.07" y2="18.67" gradientUnits="userSpaceOnUse"><stop offset="0" stop-color="#d0e8f8"/><stop offset="1" stop-color="#e1eef9"/></linearGradient><linearGradient id="New_Gradient_Swatch_copy" x1="4.81" y1="51.41" x2="15.31" y2="51.41" gradientUnits="userSpaceOnUse"><stop offset="0" stop-color="#00aeef"/><stop offset="1" stop-color="#00bdf2"/></linearGradient><linearGradient id="New_Gradient_Swatch_copy-2" x1="11.95" y1="54.45" x2="25.96" y2="54.45" xlink:href="#New_Gradient_Swatch_copy"/><linearGradient id="New_Gradient_Swatch_copy_2-2" x1="33.19" y1="45.78" x2="37.19" y2="45.78" xlink:href="#New_Gradient_Swatch_copy_2"/><linearGradient id="New_Gradient_Swatch_copy_2-3" x1="43.19" y1="45.78" x2="47.19" y2="45.78" xlink:href="#New_Gradient_Swatch_copy_2"/><linearGradient id="New_Gradient_Swatch_copy_2-4" x1="24.19" y1="62.39" x2="28.19" y2="62.39" xlink:href="#New_Gradient_Swatch_copy_2"/><linearGradient id="New_Gradient_Swatch_copy_2-5" x1="29.19" y1="53.89" x2="33.19" y2="53.89" xlink:href="#New_Gradient_Swatch_copy_2"/><linearGradient id="New_Gradient_Swatch_copy_2-6" x1="39.19" y1="53.89" x2="43.19" y2="53.89" xlink:href="#New_Gradient_Swatch_copy_2"/></defs><title>資產 14</title><g id="圖層_2" data-name="圖層 2"><g id="Icons"><g id="Sleet"><path class="cls-1" d="M46,36.44a10.67,10.67,0,1,0,0-21.33h-.11a17,17,0,0,0-32.44-5.07H13.2a13.2,13.2,0,0,0,0,26.4"/><path class="cls-2" d="M60.22,36.44a6.7,6.7,0,1,0,0-13.39h-.07a10.69,10.69,0,0,0-20.37-3.18h-.16a8.29,8.29,0,0,0,0,16.58"/><path class="cls-3" d="M6.81,59a1.87,1.87,0,0,1-1-.27A2,2,0,0,1,5.08,56l6.5-11.25a2,2,0,1,1,3.47,2L8.55,58A2,2,0,0,1,6.81,59Z"/><path class="cls-4" d="M14,65.11a2,2,0,0,1-1-.27,2,2,0,0,1-.74-2.73l10-17.32a2,2,0,1,1,3.47,2l-10,17.32A2,2,0,0,1,14,65.11Z"/><circle class="cls-5" cx="35.19" cy="45.78" r="2"/><circle class="cls-6" cx="45.19" cy="45.78" r="2"/><circle class="cls-7" cx="26.19" cy="62.39" r="2"/><circle class="cls-8" cx="31.19" cy="53.89" r="2"/><circle class="cls-9" cx="41.19" cy="53.89" r="2"/></g></g></g></svg>